<svg width="1600" height="900" viewBox="0 0 1600 900" fill="none" xmlns="http://www.w3.org/2000/svg">
  <defs>
    <linearGradient id="bg" x1="0" y1="0" x2="1600" y2="900" gradientUnits="userSpaceOnUse">
      <stop stop-color="#00718d"/>
      <stop offset="1" stop-color="#ce1053"/>
    </linearGradient>
    <linearGradient id="card" x1="300" y1="180" x2="1270" y2="760" gradientUnits="userSpaceOnUse">
      <stop stop-color="#FFFFFF" stop-opacity="0.95"/>
      <stop offset="1" stop-color="#f2fbfd" stop-opacity="0.92"/>
    </linearGradient>
  </defs>
  <rect width="1600" height="900" fill="url(#bg)"/>
  <circle cx="1340" cy="160" r="180" fill="#9ddbea" fill-opacity="0.25"/>
  <circle cx="260" cy="780" r="220" fill="#b7e7f2" fill-opacity="0.22"/>
  <rect x="260" y="150" width="1080" height="610" rx="32" fill="url(#card)"/>
  <rect x="330" y="240" width="390" height="36" rx="18" fill="#d6eef5"/>
  <rect x="330" y="310" width="770" height="42" rx="12" fill="#c6ebf4"/>
  <rect x="330" y="372" width="700" height="28" rx="10" fill="#e8f6fa"/>
  <rect x="330" y="430" width="640" height="28" rx="10" fill="#e8f6fa"/>
  <rect x="330" y="520" width="240" height="64" rx="18" fill="#00718d"/>
  <text x="355" y="561" fill="#FFFFFF" font-family="Arial, sans-serif" font-size="28" font-weight="700">Tour Checklist</text>
  <rect x="990" y="260" width="280" height="340" rx="24" fill="#f2fbfd"/>
  <circle cx="1130" cy="355" r="76" fill="#c6ebf4"/>
  <path d="M1092 354L1120 382L1169 333" stroke="#00718d" stroke-width="18" stroke-linecap="round" stroke-linejoin="round"/>
</svg>
