<svg width="1600" height="900" viewBox="0 0 1600 900" fill="none" xmlns="http://www.w3.org/2000/svg">
  <defs>
    <linearGradient id="bg4" x1="0" y1="0" x2="1600" y2="900" gradientUnits="userSpaceOnUse">
      <stop stop-color="#00718d"/>
      <stop offset="1" stop-color="#ce1053"/>
    </linearGradient>
  </defs>
  <rect width="1600" height="900" fill="url(#bg4)"/>
  <circle cx="1380" cy="200" r="190" fill="#b7e7f2" fill-opacity="0.24"/>
  <circle cx="240" cy="730" r="210" fill="#d3eef7" fill-opacity="0.22"/>
  <rect x="210" y="120" width="1180" height="660" rx="38" fill="#FFFFFF" fill-opacity="0.9"/>
  <rect x="300" y="220" width="740" height="56" rx="16" fill="#d6eef5"/>
  <text x="332" y="257" fill="#005466" font-family="Arial, sans-serif" font-size="30" font-weight="700">What Quality Early Learning Looks Like</text>
  <rect x="300" y="324" width="710" height="28" rx="10" fill="#e8f6fa"/>
  <rect x="300" y="372" width="760" height="28" rx="10" fill="#e8f6fa"/>
  <rect x="300" y="420" width="670" height="28" rx="10" fill="#e8f6fa"/>
  <rect x="300" y="468" width="640" height="28" rx="10" fill="#e8f6fa"/>
  <rect x="300" y="540" width="520" height="120" rx="24" fill="#f2fbfd"/>
  <circle cx="1125" cy="420" r="120" fill="#c6ebf4"/>
  <path d="M1048 443L1103 388L1153 438L1214 372" stroke="#005466" stroke-width="16" stroke-linecap="round" stroke-linejoin="round"/>
  <circle cx="1048" cy="443" r="14" fill="#005466"/>
  <circle cx="1103" cy="388" r="14" fill="#005466"/>
  <circle cx="1153" cy="438" r="14" fill="#005466"/>
  <circle cx="1214" cy="372" r="14" fill="#005466"/>
</svg>
